<svg width="34" height="34" viewBox="0 0 34 34" fill="none" xmlns="http://www.w3.org/2000/svg">
<g id="&#240;&#159;&#166;&#134; icon &#34;github&#34;">
<path id="Vector" d="M17 0.0771484C7.43749 0.0771484 0 7.71966 0 17.5457C0 29.0095 10.0937 33.9225 11.6875 33.9225C12.75 33.9225 12.75 33.3766 12.75 32.8308V30.1013C9.03124 31.1931 7.43749 29.0095 6.90624 27.3718C6.90624 27.3718 6.90624 26.8259 5.84374 25.7341C5.31249 25.1882 3.1875 24.0965 5.31249 24.0965C6.90624 24.0965 7.96874 26.28 7.96874 26.28C9.56249 28.4636 11.6875 27.9177 12.75 27.3718C12.75 26.28 13.8125 25.1882 13.8125 25.1882C9.56249 24.6424 6.37499 23.0047 6.37499 16.9998C6.37499 14.8163 6.90624 13.1786 7.96874 12.0868C7.96874 12.0868 6.90624 9.90323 7.96874 7.17376C7.96874 7.17376 10.625 7.17376 12.75 9.35734C14.3437 8.26555 19.6562 8.26555 21.25 9.35734C23.375 7.17376 26.0312 7.17376 26.0312 7.17376C27.0937 10.995 26.0312 12.0868 26.0312 12.0868C27.0937 13.1786 27.625 14.8163 27.625 16.9998C27.625 23.0047 23.9062 24.6424 20.1875 25.1882C20.7187 25.7341 21.25 26.8259 21.25 28.4636V32.8308C21.25 33.3766 21.25 33.9225 22.3125 33.9225C23.9062 33.9225 34 29.0095 34 17.5457C34 7.71966 26.5625 0.0771484 17 0.0771484Z" fill="white"/>
</g>
</svg>
